{"title":"Yo Yo Honey Singh - Blue Eyes [Music Video] 1080p [Sbyky]","uid":9226307,"size":103417439,"categoryP":"video","categoryS":"music_videos","magnet":"?xt=urn:btih:72c48af99e19ee89bd9c364ea324d1a43ff26323&amp;dn=Yo+Yo+Honey+Singh+-+Blue+Eyes+%5BMusic+Video%5D+1080p+%5BSbyky%5D&amp;tr=udp%3A%2F%2Ftracker.openbittorrent.com%3A80&amp;tr=udp%3A%2F%2Fopen.demonii.com%3A1337&amp;tr=udp%3A%2F%2Ftracker.coppersurfer.tk%3A6969&amp;tr=udp%3A%2F%2Fexodus.desync.com%3A6969","seeders":1,"leechers":0,"uploader":"Sbyky","files":1,"time":1385012668,"description":"[IMG]http://cdn.piczend.com/images/YDboe6OJ/1384899088_blueeyes.jpg[/IMG]\n\nGeneral\nComplete name                            : Yo Yo Honey Singh - Blue Eyes [Music Video] 1080p [Sbyky].MP4\nFormat                                   : MPEG-4\nFormat profile                           : Base Media\nCodec ID                                 : isom\nFile size                                : 98.6 MiB\nDuration                                 : 4mn 2s\nOverall bit rate mode                    : Variable\nOverall bit rate                         : 3 408 Kbps\nEncoded date                             : UTC 2013-11-06 10:30:26\nTagged date                              : UTC 2013-11-06 10:30:26\n\nVideo\nID                                       : 1\nFormat                                   : AVC\nFormat/Info                              : Advanced Video Codec\nFormat profile                           : &lt;a class=&quot;__cf_email__&quot; href=&quot;/cdn-cgi/l/email-protection&quot; data-cfemail=&quot;327a5b555a727e061c02&quot;&gt;[email&amp;#160;protected]&lt;/a&gt;&lt;script cf-hash='f9e31' type=&quot;text/javascript&quot;&gt;\n/* &lt;![CDATA[ */!function(){try{var t=&quot;currentScript&quot;in document?document.currentScript:function(){for(var t=document.getElementsByTagName(&quot;script&quot;),e=t.length;e--;)if(t[e].getAttribute(&quot;cf-hash&quot;))return t[e]}();if(t&amp;&amp;t.previousSibling){var e,r,n,i,c=t.previousSibling,a=c.getAttribute(&quot;data-cfemail&quot;);if(a){for(e=&quot;&quot;,r=parseInt(a.substr(0,2),16),n=2;a.length-n;n+=2)i=parseInt(a.substr(n,2),16)^r,e+=String.fromCharCode(i);e=document.createTextNode(e),c.parentNode.replaceChild(e,c)}}}catch(u){}}();/* ]]&gt; */&lt;/script&gt;\nFormat settings, CABAC                   : Yes\nFormat settings, ReFrames                : 2 frames\nCodec ID                                 : avc1\nCodec ID/Info                            : Advanced Video Coding\nDuration                                 : 4mn 2s\nBit rate                                 : 3 152 Kbps\nWidth                                    : 1 920 pixels\nHeight                                   : 1 080 pixels\nDisplay aspect ratio                     : 16:9\nFrame rate mode                          : Constant\nFrame rate                               : 23.976 fps\nColor space                              : YUV\nChroma subsampling                       : 4:2:0\nBit depth                                : 8 bits\nScan type                                : Progressive\nBits/(Pixel*Frame)                       : 0.063\nStream size                              : 91.2 MiB (92%)\nEncoded date                             : UTC 2013-11-06 10:30:26\nTagged date                              : UTC 2013-11-06 10:30:26\n\nAudio\nID                                       : 2\nFormat                                   : AAC\nFormat/Info                              : Advanced Audio Codec\nFormat profile                           : LC\nCodec ID                                 : 40\nDuration                                 : 4mn 2s\nBit rate mode                            : Variable\nBit rate                                 : 254 Kbps\nChannel(s)                               : 2 channels\nChannel positions                        : Front: L R\nSampling rate                            : 44.1 KHz\nCompression mode                         : Lossy\nDelay relative to video                  : 42ms\nStream size                              : 7.34 MiB (7%)\nEncoded date                             : UTC 2013-11-06 10:30:09\nTagged date                              : UTC 2013-11-06 10:30:09\n\nShared By Sbyky\n[IMG]http://cdn.piczend.com/images/X3Ag13N3/1379453786_saythanks.gif[/IMG]\n[IMG]http://cdn.piczend.com/images/gGqhX2S8/1379453780_keepseeding.gif[/IMG]","torrent":{"xt":"urn:btih:72c48af99e19ee89bd9c364ea324d1a43ff26323","amp;dn":"Yo+Yo+Honey+Singh+-+Blue+Eyes+%5BMusic+Video%5D+1080p+%5BSbyky%5D","amp;tr":["udp%3A%2F%2Ftracker.openbittorrent.com%3A80","udp%3A%2F%2Fopen.demonii.com%3A1337","udp%3A%2F%2Ftracker.coppersurfer.tk%3A6969","udp%3A%2F%2Fexodus.desync.com%3A6969"],"infoHash":"72c48af99e19ee89bd9c364ea324d1a43ff26323","infoHashBuffer":{"type":"Buffer","data":[114,196,138,249,158,25,238,137,189,156,54,78,163,36,209,164,63,242,99,35]},"announce":[],"urlList":[]}}